<svg width="1024" height="1024" version="1.1" viewBox="0 0 270.93 270.93" xmlns="http://www.w3.org/2000/svg">
 <rect x="-28.945" y="-21.394" width="417.81" height="368.73" fill-opacity="0" stroke-width=".26458"/>
 <rect x="-43.778" y="-34.218" width="385.45" height="367.34" fill="#2c3e4f" stroke-width=".26489"/>
 <path d="m86.819 174.73v-10.372q0-8.3961 3.9511-15.064 4.198-6.9144 10.866-10.866 6.9144-3.9511 15.064-3.9511h67.663q3.9511 0 6.6675-2.7164 2.9633-2.9633 2.9633-6.9144v-47.907q0-3.9511-2.9633-6.6675-2.7164-2.9633-6.6675-2.9633h-127.67v-20.743l127.67 0.24694q8.1492 0 14.817 4.198 6.9144 3.9511 10.866 10.866 4.198 6.6675 4.198 15.064v47.907q0 8.1492-4.198 15.064-3.9511 6.6675-10.866 10.866-6.6675 3.9511-14.817 3.9511h-67.663q-3.9511 0-6.9144 2.9633-2.7164 2.7164-2.7164 6.6675v10.372zm0 49.636v-20.249h20.249v20.249z" fill="#fff" stroke-width=".26458" aria-label="?"/>
</svg>
