<?xml version="1.0" encoding="UTF-8" standalone="no"?>
<!-- Created with Inkscape (http://www.inkscape.org/) -->

<svg
   width="1024"
   height="1024"
   viewBox="0 0 270.93333 270.93333"
   version="1.1"
   id="svg1"
   xmlns="http://www.w3.org/2000/svg"
   xmlns:svg="http://www.w3.org/2000/svg">
  <defs
     id="defs1" />
  <g
     id="layer1">
    <rect
       style="fill:#2c3e4f;fill-opacity:0;stroke-width:0.264583"
       id="rect1"
       width="417.81354"
       height="368.73303"
       x="-28.944914"
       y="-21.394068" />
    <rect
       style="fill:#2c3e4f;fill-opacity:1;stroke-width:0.264891"
       id="rect2"
       width="385.45053"
       height="367.33536"
       x="-43.778328"
       y="-34.217545" />
    <path
       style="font-size:246.944px;font-family:Orbitron;-inkscape-font-specification:Orbitron;fill:#ffffff;stroke-width:0.264583"
       d="m 86.818698,174.73077 v 0 -10.37165 q 0,-8.3961 3.951104,-15.06359 4.198046,-6.91443 10.865538,-10.86553 6.91443,-3.95111 15.06358,-3.95111 h 67.66266 q 3.9511,0 6.66749,-2.71638 2.96333,-2.96333 2.96333,-6.91443 V 76.940935 q 0,-3.951104 -2.96333,-6.667488 -2.71639,-2.963328 -6.66749,-2.963328 H 56.69153 V 46.566823 l 127.67005,0.246944 q 8.14915,0 14.81664,4.198048 6.91443,3.951104 10.86554,10.865536 4.19804,6.667488 4.19804,15.063584 v 47.907145 q 0,8.14915 -4.19804,15.06358 -3.95111,6.66749 -10.86554,10.86554 -6.66749,3.9511 -14.81664,3.9511 h -67.66266 q -3.9511,0 -6.91443,2.96333 -2.71638,2.71638 -2.71638,6.66749 v 10.37165 z m 0,49.63574 v 0 -20.24941 h 20.249412 v 20.24941 z"
       id="text3"
       aria-label="?" />
  </g>
</svg>
